<svg xmlns="http://www.w3.org/2000/svg" viewBox="0 0 326.39 308.69"><defs><style>.cls-1{fill:#fff;stroke:#000;stroke-miterlimit:10;}</style></defs><g id="Layer_1" data-name="Layer 1"><path class="cls-1" d="M179.38,164.62V386.15a22.31,22.31,0,0,0,22.31,22.31H397.05A22.31,22.31,0,0,1,413.73,416l23.61,26.56A22.31,22.31,0,0,0,454,450h28.44a22.31,22.31,0,0,0,22.31-22.31V164.62a22.31,22.31,0,0,0-22.31-22.31H201.69A22.31,22.31,0,0,0,179.38,164.62Z" transform="translate(-178.88 -141.81)"/></g><g id="Layer_1_copy" data-name="Layer 1 copy"><path class="cls-1" d="M179.38,164.62V386.15a22.31,22.31,0,0,0,22.31,22.31H397.05A22.31,22.31,0,0,1,413.73,416l23.61,26.56A22.31,22.31,0,0,0,454,450h28.44a22.31,22.31,0,0,0,22.31-22.31V164.62a22.31,22.31,0,0,0-22.31-22.31H201.69A22.31,22.31,0,0,0,179.38,164.62Z" transform="translate(-178.88 -141.81)"/></g></svg>