<svg xmlns="http://www.w3.org/2000/svg" viewBox="0 0 921.31 244.28"><defs><style>.cl-1{fill:none;}.cl-1,.cl-2,.cl-20,.cl-21,.cl-22,.cl-23,.cl-24,.cl-25{stroke:#000;stroke-miterlimit:10;}.cl-2,.cl-20,.cl-21,.cl-22,.cl-23,.cl-24,.cl-25{fill:#fff;}.cl-3{font-size:28.4px;font-family:Helvetica-Narrow, Helvetica Narrow;}.cl-4{font-size:19.73px;}.cl-10,.cl-26,.cl-4{font-family:Eurostile-Reg, Eurostile;}.cl-5{letter-spacing:0.04em;}.cl-6{letter-spacing:0em;}.cl-7{letter-spacing:0.01em;}.cl-8{font-size:9.39px;}.cl-16,.cl-28,.cl-8{font-family:Eurostile-RegObl, Eurostile;font-style:oblique;}.cl-9{letter-spacing:0em;}.cl-10{font-size:19.73px;}.cl-11{letter-spacing:0em;}.cl-12{letter-spacing:0.02em;}.cl-13{letter-spacing:0.04em;}.cl-14{letter-spacing:0em;}.cl-15{letter-spacing:0.01em;}.cl-16{font-size:9.39px;}.cl-17{letter-spacing:0em;}.cl-18{letter-spacing:0em;}.cl-19{letter-spacing:0em;}.cl-20,.cl-21,.cl-22,.cl-23,.cl-24{stroke-width:2px;}.cl-21{font-size:34.15px;letter-spacing:0.06em;}.cl-21,.cl-22,.cl-23,.cl-24,.cl-25{font-family:Billo;}.cl-22{font-size:68.35px;letter-spacing:0.06em;}.cl-23{font-size:47.58px;letter-spacing:0.06em;}.cl-24{font-size:39.78px;letter-spacing:0.06em;}.cl-25{font-size:19.41px;letter-spacing:0.06em;}.cl-26{font-size:23.3px;}.cl-27{letter-spacing:0em;}.cl-28{font-size:9.11px;}.cl-29{letter-spacing:0em;}</style></defs><g id="portfolio"><path class="cl-1" d="M279.64,41.6V215a17.46,17.46,0,0,1-17.46,17.46h-58a17.48,17.48,0,0,0-13,5.86l-18.49,20.8A17.47,17.47,0,0,1,159.57,265H42.38a17.47,17.47,0,0,1-17.46-17.47h0V41.6A17.47,17.47,0,0,1,42.38,24.13h219.8A17.47,17.47,0,0,1,279.64,41.6Z" transform="translate(-24.42 -21.18)"/><rect class="cl-2" x="25.05" y="23.07" width="205.62" height="172.04" rx="23.85"/><text class="cl-3" transform="translate(55.41 109.09)">william ptacek</text><text class="cl-4" transform="translate(25.05 220.64) scale(0.87 1)">old po<tspan class="cl-5" x="48.74" y="0">r</tspan><tspan class="cl-6" x="57.22" y="0">t</tspan><tspan class="cl-7" x="63.65" y="0">f</tspan><tspan x="69.18" y="0">olio</tspan></text><text class="cl-8" transform="translate(25.86 234.49)">ju<tspan class="cl-9" x="6.51" y="0">l</tspan><tspan x="8.27" y="0">y 2020</tspan></text></g><g id="current_portfolio" data-name="current portfolio"><path id="main-body" class="cl-1" d="M708,21.68h219.8a17.46,17.46,0,0,1,17.46,17.46V245h0a17.47,17.47,0,0,1-17.46,17.47H810.59a17.44,17.44,0,0,1-13.05-5.86l-18.49-20.8A17.47,17.47,0,0,0,766,230H708a17.47,17.47,0,0,1-17.46-17.47V39.14A17.46,17.46,0,0,1,708,21.68Z" transform="translate(-24.42 -21.18)"/><rect id="rectangle-encapsulation" class="cl-2" x="690.64" y="20.62" width="205.62" height="172.04" rx="23.85"/><text class="cl-10" transform="translate(787.06 218.78) scale(0.87 1)"><tspan class="cl-11">c</tspan><tspan x="9.55" y="0">u</tspan><tspan class="cl-12" x="19.44" y="0">r</tspan><tspan x="27.51" y="0">ent po</tspan><tspan class="cl-13" x="78.94" y="0">r</tspan><tspan class="cl-14" x="87.43" y="0">t</tspan><tspan class="cl-15" x="93.86" y="0">f</tspan><tspan x="99.39" y="0">olio</tspan></text><text class="cl-16" transform="translate(787.87 232.63)">o<tspan class="cl-17" x="4.75" y="0">c</tspan><tspan class="cl-18" x="9.32" y="0">t</tspan><tspan class="cl-19" x="12.43" y="0">ober 2020</tspan></text><g id="logo"><path id="ears" class="cl-20" d="M871.67,98.49h0c6.91-.24,20.46.42,28.9.91,2.65.15,4.15-2.72,2.34-4.5h0c-2.56-2.53-7.51-8.31-11.29-8.34-8.65,0-24.29,3.1-27.59,7.29h0c-12.29-6.4-28.1-10.26-45.35-10.26-16.45,0-31.59,3.5-43.61,9.38h0c-3.48-4.07-18.3-6.61-26.89-6.2-3.76.17-9.1,6-11.54,8.55h0c-1.75,1.87-.06,4.71,2.6,4.4,8.27-1,21.18-2.27,28-2.27h0c-12,7.92-19.33,18.61-19.33,30.37,0,24.42,31.7,44.23,70.8,44.23s70.79-19.81,70.79-44.23C889.47,116.57,882.75,106.3,871.67,98.49Zm-52.68,63c-31.56,0-57.13-15.19-57.13-33.92S787.43,93.63,819,93.63s57.12,15.19,57.12,33.93S850.54,161.48,819,161.48Z" transform="translate(-24.42 -21.18)"/><ellipse id="face" class="cl-20" cx="794.57" cy="106.64" rx="57.13" ry="33.93"/><text class="cl-21" transform="translate(751.41 105.33) scale(1.1 1)">willy</text><text class="cl-22" transform="matrix(-0.04, 0.91, -1, -0.03, 809.29, 112.6)">*</text><text class="cl-23" transform="matrix(-0.34, 0.86, -0.95, -0.31, 801.18, 119.73)">*</text><text class="cl-24" transform="matrix(0.99, 0.39, -0.43, 0.9, 783.85, 140.32)">*</text><text class="cl-25" transform="translate(747.85 121.95) scale(1.1 1)">digital</text></g></g><g id="shoppedemo"><rect id="rectangle-encapsulation-2" data-name="rectangle-encapsulation" class="cl-2" x="360.98" y="24.71" width="199.36" height="166.8" rx="23.85"/><g id="half-circles"><path class="cl-2" d="M485.08,201.91a72.62,72.62,0,1,1,0-145.24Z" transform="translate(-24.42 -21.18)"/><path class="cl-2" d="M485.08,201.91a72.62,72.62,0,1,0,0-145.24Z" transform="translate(-24.42 -21.18)"/></g><circle id="mid-circle" class="cl-2" cx="460.66" cy="108.11" r="65.61"/><path class="cl-1" d="M608.56,43.17v172.5a16.63,16.63,0,0,1-16.46,16.79H563.92a16.26,16.26,0,0,0-10.6,3.95l-22.75,19.53a16.31,16.31,0,0,1-10.6,3.94H450.18a16.31,16.31,0,0,1-10.6-3.94l-22.75-19.53a16.24,16.24,0,0,0-10.59-3.95H378.05a16.63,16.63,0,0,1-16.46-16.79V43.17a16.63,16.63,0,0,1,16.46-16.79H592.1A16.63,16.63,0,0,1,608.56,43.17Z" transform="translate(-24.42 -21.18)"/><text class="cl-26" transform="translate(411.35 218.78) scale(0.75 1)">shopp<tspan class="cl-27" x="58.55" y="0">e</tspan><tspan x="70.17" y="0">.demo</tspan></text><text class="cl-28" transform="translate(442.12 231.51)">a<tspan class="cl-29" x="4.64" y="0">u</tspan><tspan x="9.23" y="0">g 2020</tspan></text></g></svg>