<svg id="Layer_2" data-name="Layer 2" xmlns="http://www.w3.org/2000/svg" viewBox="0 0 479.26 324.45"><defs><style>.cls-1,.cls-3,.cls-4,.cls-5,.cls-6,.cls-7{fill:#fff;}.cls-1,.cls-2,.cls-3,.cls-4,.cls-5,.cls-6,.cls-7{stroke:#000;stroke-miterlimit:10;stroke-width:2px;}.cls-2{fill:none;}.cls-3{font-size:106.7px;letter-spacing:0.06em;}.cls-3,.cls-4,.cls-5,.cls-6,.cls-7{font-family:Billo;}.cls-4{font-size:194.44px;letter-spacing:0.06em;}.cls-5{font-size:136.71px;letter-spacing:0.06em;}.cls-6{font-size:122.31px;letter-spacing:0.06em;}.cls-7{font-size:60.64px;letter-spacing:0.06em;}</style></defs><path class="cls-1" d="M509.94,266.69h0c19.67-.77,58.2,1.31,82.19,2.83a8.37,8.37,0,0,0,6.68-14h0c-7.3-7.91-21.37-26-32.13-26.06-24.61-.18-69.09,9.66-78.49,22.77h0c-34.94-20-79.92-32.06-129-32.06-46.78,0-89.85,10.94-124,29.31h0c-9.9-12.73-52.07-20.65-76.51-19.39-10.68.56-25.88,18.6-32.82,26.73h0a8.37,8.37,0,0,0,7.41,13.75c23.51-3,60.25-7.11,79.56-7.11h0c-34.09,24.75-55,58.14-55,94.89,0,76.31,90.16,138.18,201.38,138.18s201.38-61.87,201.38-138.18C560.57,323.16,541.44,291.08,509.94,266.69ZM360.07,463.49c-89.75,0-162.5-47.46-162.5-106s72.75-106,162.5-106,162.5,47.46,162.5,106S449.82,463.49,360.07,463.49Z" transform="translate(-122.8 -219.13)"/><ellipse class="cls-2" cx="237.28" cy="139.18" rx="162.5" ry="106"/><ellipse class="cls-1" cx="237.28" cy="139.18" rx="162.5" ry="106"/><path class="cls-2" d="M151.57,264.31" transform="translate(-122.8 -219.13)"/><text class="cls-3" transform="translate(114.51 135.09)">willy</text><text class="cls-4" transform="matrix(-0.04, 1, -1, -0.04, 279.17, 157.8)">*</text><text class="cls-5" transform="translate(256.1 180.08) rotate(109.91)">*</text><text class="cls-6" transform="translate(206.79 244.42) rotate(23.27)">*</text><text class="cls-7" transform="translate(104.37 187.02)">digital</text></svg>