<svg id="Layer_2" data-name="Layer 2" xmlns="http://www.w3.org/2000/svg" viewBox="0 0 923 252"><path d="M1005,38H129a23,23,0,0,0-23,23V266a23,23,0,0,0,23,23H881.12a23,23,0,0,0,15.46-6L937.42,246a23,23,0,0,1,15.46-6H1005a23,23,0,0,0,23-23V61A23,23,0,0,0,1005,38Z" transform="translate(-105.5 -37.5)" style="fill:#fff;stroke:#000;stroke-miterlimit:10"/><text transform="translate(24.36 30.46) scale(0.75 1)" style="font-size:21.038278579711914px;font-family:Eurostile-RegObl, Eurostile;font-style:oblique">edu<tspan x="31.98" y="0" style="letter-spacing:-0.007984004068793267em">c</tspan><tspan x="42.01" y="0" style="letter-spacing:-0.002982351714413049em">a</tspan><tspan x="52.66" y="0" style="letter-spacing:0.000994117238137683em">t</tspan><tspan x="59.54" y="0">ion:</tspan><tspan x="89.16" y="0" style="font-family:MyriadPro-Regular, Myriad Pro;font-style:normal"> </tspan><tspan x="93.62" y="0" style="font-family:Eurostile-Reg, Eurostile;font-style:normal;letter-spacing:0.004970586190688416em">s</tspan><tspan x="103.67" y="0" style="font-family:Eurostile-Reg, Eurostile;font-style:normal;letter-spacing:0.000031066163691802596em">aint </tspan><tspan x="141.02" y="0" style="font-family:Eurostile-Reg, Eurostile;font-style:normal;letter-spacing:-0.002982351714413049em">i</tspan><tspan x="144.91" y="0" style="font-family:Eurostile-Reg, Eurostile;font-style:normal;letter-spacing:0.000031066163691802596em">gn</tspan><tspan x="166.41" y="0" style="font-family:Eurostile-Reg, Eurostile;font-style:normal;letter-spacing:0.01099742194689812em">a</tspan><tspan x="177.14" y="0" style="font-family:Eurostile-Reg, Eurostile;font-style:normal;letter-spacing:0.015004957063140655em">t</tspan><tspan x="184.31" y="0" style="font-family:Eurostile-Reg, Eurostile;font-style:normal;letter-spacing:0.000031066163691802596em">ius </tspan><tspan x="214.02" y="0" style="font-family:Eurostile-Reg, Eurostile;font-style:normal;letter-spacing:0.003013417878104852em">c</tspan><tspan x="224.28" y="0" style="font-family:Eurostile-Reg, Eurostile;font-style:normal;letter-spacing:-0.000031066163691802596em">oll</tspan><tspan x="242.84" y="0" style="font-family:Eurostile-Reg, Eurostile;font-style:normal;letter-spacing:-0.000994117238137683em">e</tspan><tspan x="253.4" y="0" style="font-family:Eurostile-Reg, Eurostile;font-style:normal;letter-spacing:-0.002982351714413049em">g</tspan><tspan x="264.07" y="0" style="font-family:Eurostile-Reg, Eurostile;font-style:normal">e p</tspan><tspan x="290.64" y="0" style="font-family:Eurostile-Reg, Eurostile;font-style:normal;letter-spacing:0.017987308777553702em">r</tspan><tspan x="299.24" y="0" style="font-family:Eurostile-Reg, Eurostile;font-style:normal">ep (3.5 </tspan><tspan x="366.88" y="0" style="font-family:Eurostile-Reg, Eurostile;font-style:normal;letter-spacing:-0.003976468952550732em">g</tspan><tspan x="377.52" y="0" style="font-family:Eurostile-Reg, Eurostile;font-style:normal">pa) a</tspan><tspan x="420.34" y="0" style="font-family:Eurostile-Reg, Eurostile;font-style:normal;letter-spacing:-0.003013417878104852em">u</tspan><tspan x="430.81" y="0" style="font-family:Eurostile-Reg, Eurostile;font-style:normal">g 2014 - may 2018</tspan><tspan style="font-family:Eurostile-Reg, Eurostile;font-style:normal"><tspan x="0" y="25.25" style="letter-spacing:0.010966355783206318em">f</tspan><tspan x="5.89" y="25.25">o</tspan><tspan x="16.54" y="25.25" style="letter-spacing:0.017987308777553702em">r</tspan><tspan x="25.14" y="25.25">dham un</tspan><tspan x="100.83" y="25.25" style="letter-spacing:0.01599907430127834em">i</tspan><tspan x="105.13" y="25.25" style="letter-spacing:0.003976468952550732em">v</tspan><tspan x="113.67" y="25.25">e</tspan><tspan x="124.25" y="25.25" style="letter-spacing:0.021000726655658556em">r</tspan><tspan x="132.92" y="25.25">si</tspan><tspan x="146.82" y="25.25" style="letter-spacing:0.035011566480661525em">t</tspan><tspan x="154.42" y="25.25" style="letter-spacing:0.000031066163691802596em">y lin</tspan><tspan x="186.54" y="25.25" style="letter-spacing:0.003013417878104852em">c</tspan><tspan x="196.81" y="25.25" style="letter-spacing:-0.000031066163691802596em">oln </tspan><tspan x="227.44" y="25.25" style="letter-spacing:0.002982351714413049em">c</tspan><tspan x="237.71" y="25.25">en</tspan><tspan x="259.06" y="25.25" style="letter-spacing:0.020006609417520874em">t</tspan><tspan x="266.34" y="25.25">er (</tspan><tspan x="296.23" y="25.25" style="letter-spacing:-0.000994117238137683em">c</tspan><tspan x="306.41" y="25.25">u</tspan><tspan x="316.95" y="25.25" style="letter-spacing:0.011991539185035803em">r</tspan><tspan x="325.43" y="25.25" style="letter-spacing:0.017987308777553702em">r</tspan><tspan x="334.04" y="25.25" style="letter-spacing:-0.000031066163691802596em">ent </tspan><tspan x="367.51" y="25.25" style="letter-spacing:-0.003976468952550732em">g</tspan><tspan x="378.15" y="25.25">pa: 3.65) a</tspan><tspan x="473.29" y="25.25" style="letter-spacing:-0.003013417878104852em">u</tspan><tspan x="483.76" y="25.25">g 2018 - may 2022 (</tspan><tspan x="669.93" y="25.25" style="letter-spacing:0.004007535116242535em">e</tspan><tspan x="680.6" y="25.25">xpe</tspan><tspan x="710.41" y="25.25" style="letter-spacing:0.019944477090137268em">ct</tspan><tspan x="728.31" y="25.25" style="letter-spacing:0.00006213232738360519em">e</tspan><tspan x="738.89" y="25.25" style="letter-spacing:0.002982351714413049em">d</tspan><tspan x="749.68" y="25.25">) </tspan></tspan></text><text x="-105.5" y="-37.5"/><text transform="translate(24.58 91.19) scale(0.75 1)" style="font-size:21.038278579711914px;font-family:Eurostile-RegObl, Eurostile;font-style:oblique"><tspan style="letter-spacing:0.005001652354380218em">t</tspan><tspan x="6.96" y="0">e</tspan><tspan x="17.55" y="0" style="letter-spacing:-0.002982351714413049em">c</tspan><tspan x="27.69" y="0">hnol</tspan><tspan x="63.93" y="0" style="letter-spacing:-0.002019300639967169em">o</tspan><tspan x="74.54" y="0">gi</tspan><tspan x="89.22" y="0" style="letter-spacing:-0.0009630510744458806em">e</tspan><tspan x="99.78" y="0" style="letter-spacing:-0.005001652354380218em">s</tspan><tspan x="109.63" y="0" style="letter-spacing:0.000031066163691802596em">: </tspan><tspan x="119.07" y="0" style="font-family:Eurostile-Reg, Eurostile;font-style:normal">h</tspan><tspan x="129.89" y="0" style="font-family:Eurostile-Reg, Eurostile;font-style:normal;letter-spacing:0.015004957063140655em">t</tspan><tspan x="137.06" y="0" style="font-family:Eurostile-Reg, Eurostile;font-style:normal">m</tspan><tspan x="154.15" y="0" style="font-family:Eurostile-Reg, Eurostile;font-style:normal;letter-spacing:-0.005995769592517902em">l</tspan><tspan x="157.97" y="0" style="font-family:Eurostile-Reg, Eurostile;font-style:normal">, </tspan><tspan x="167.48" y="0" style="font-family:Eurostile-Reg, Eurostile;font-style:normal;letter-spacing:0.009009187470622754em">c</tspan><tspan x="177.88" y="0" style="font-family:Eurostile-Reg, Eurostile;font-style:normal;letter-spacing:0.006989886830655585em">s</tspan><tspan x="187.97" y="0" style="font-family:Eurostile-Reg, Eurostile;font-style:normal;letter-spacing:-0.001988234476275366em">s</tspan><tspan x="197.88" y="0" style="font-family:Eurostile-Reg, Eurostile;font-style:normal">, j</tspan><tspan x="211.3" y="0" style="font-family:Eurostile-Reg, Eurostile;font-style:normal;letter-spacing:0.002982351714413049em">av</tspan><tspan x="230.39" y="0" style="font-family:Eurostile-Reg, Eurostile;font-style:normal;letter-spacing:-0.0009630510744458806em">a</tspan><tspan x="240.86" y="0" style="font-family:Eurostile-Reg, Eurostile;font-style:normal">sc</tspan><tspan x="261.02" y="0" style="font-family:Eurostile-Reg, Eurostile;font-style:normal;letter-spacing:0.011991539185035803em">r</tspan><tspan x="269.49" y="0" style="font-family:Eurostile-Reg, Eurostile;font-style:normal">i</tspan><tspan x="273.45" y="0" style="font-family:Eurostile-Reg, Eurostile;font-style:normal;letter-spacing:0.00801507023248507em">p</tspan><tspan x="284.35" y="0" style="font-family:Eurostile-Reg, Eurostile;font-style:normal;letter-spacing:0.017987308777553702em">t</tspan><tspan x="291.58" y="0" style="font-family:Eurostile-Reg, Eurostile;font-style:normal;letter-spacing:0.000031066163691802596em">, adobe ph</tspan><tspan x="381.1" y="0" style="font-family:Eurostile-Reg, Eurostile;font-style:normal;letter-spacing:0.012985656423173488em">o</tspan><tspan x="392.02" y="0" style="font-family:Eurostile-Reg, Eurostile;font-style:normal;letter-spacing:0.020006609417520874em">t</tspan><tspan x="399.3" y="0" style="font-family:Eurostile-Reg, Eurostile;font-style:normal;letter-spacing:-0.000031066163691802596em">oshop, adobe illu</tspan><tspan x="542.46" y="0" style="font-family:Eurostile-Reg, Eurostile;font-style:normal;letter-spacing:0.01898142601569139em">s</tspan><tspan x="552.81" y="0" style="font-family:Eurostile-Reg, Eurostile;font-style:normal;letter-spacing:0.015036023226832456em">t</tspan><tspan x="559.99" y="0" style="font-family:Eurostile-Reg, Eurostile;font-style:normal;letter-spacing:0.010966355783206318em">ra</tspan><tspan x="579.17" y="0" style="font-family:Eurostile-Reg, Eurostile;font-style:normal;letter-spacing:0.020006609417520874em">t</tspan><tspan x="586.45" y="0" style="font-family:Eurostile-Reg, Eurostile;font-style:normal;letter-spacing:-0.000031066163691802596em">or</tspan><tspan x="605.32" y="0" style="font-family:MyriadPro-Regular, Myriad Pro;font-style:normal"> </tspan></text><text transform="translate(25.02 126) scale(0.75 1)" style="font-size:21.038278579711914px;font-family:Eurostile-RegObl, Eurostile;font-style:oblique"><tspan style="letter-spacing:-0.000994117238137683em">w</tspan><tspan x="14.07" y="0">o</tspan><tspan x="24.72" y="0" style="letter-spacing:-0.002019300639967169em">r</tspan><tspan x="33.05" y="0" style="letter-spacing:0.000031066163691802596em">k </tspan><tspan x="47.36" y="0" style="letter-spacing:-0.01099742194689812em">e</tspan><tspan x="57.71" y="0" style="letter-spacing:0.000031066163691802596em">xp: </tspan><tspan x="86.38" y="0" style="font-family:Eurostile-Reg, Eurostile;font-style:normal">logi</tspan><tspan x="115.67" y="0" style="font-family:Eurostile-Reg, Eurostile;font-style:normal;letter-spacing:0.01901249217938319em">s</tspan><tspan x="126.02" y="0" style="font-family:Eurostile-Reg, Eurostile;font-style:normal;letter-spacing:0.015004957063140655em">t</tspan><tspan x="133.19" y="0" style="font-family:Eurostile-Reg, Eurostile;font-style:normal">i</tspan><tspan x="137.15" y="0" style="font-family:Eurostile-Reg, Eurostile;font-style:normal;letter-spacing:0.009009187470622754em">c</tspan><tspan x="147.54" y="0" style="font-family:Eurostile-Reg, Eurostile;font-style:normal">s </tspan><tspan x="162.75" y="0" style="font-family:Eurostile-Reg, Eurostile;font-style:normal;letter-spacing:0.002982351714413049em">c</tspan><tspan x="173.02" y="0" style="font-family:Eurostile-Reg, Eurostile;font-style:normal">oo</tspan><tspan x="194.31" y="0" style="font-family:Eurostile-Reg, Eurostile;font-style:normal;letter-spacing:0.017956242613861903em">r</tspan><tspan x="202.91" y="0" style="font-family:Eurostile-Reg, Eurostile;font-style:normal;letter-spacing:0.000031066163691802596em">din</tspan><tspan x="228.37" y="0" style="font-family:Eurostile-Reg, Eurostile;font-style:normal;letter-spacing:0.01099742194689812em">a</tspan><tspan x="239.1" y="0" style="font-family:Eurostile-Reg, Eurostile;font-style:normal;letter-spacing:0.019975543253829074em">t</tspan><tspan x="246.37" y="0" style="font-family:Eurostile-Reg, Eurostile;font-style:normal">or @ m</tspan><tspan x="306.08" y="0" style="font-family:Eurostile-Reg, Eurostile;font-style:normal;letter-spacing:-0.002982351714413049em">a</tspan><tspan x="316.52" y="0" style="font-family:Eurostile-Reg, Eurostile;font-style:normal;letter-spacing:0.000031066163691802596em">gna </tspan><tspan x="353.77" y="0" style="font-family:Eurostile-Reg, Eurostile;font-style:normal;letter-spacing:0.015004957063140655em">t</tspan><tspan x="360.95" y="0" style="font-family:Eurostile-Reg, Eurostile;font-style:normal;letter-spacing:0.010966355783206318em">r</tspan><tspan x="369.4" y="0" style="font-family:Eurostile-Reg, Eurostile;font-style:normal;letter-spacing:0.000031066163691802596em">an</tspan><tspan x="390.67" y="0" style="font-family:Eurostile-Reg, Eurostile;font-style:normal;letter-spacing:-0.002982351714413049em">s</tspan><tspan x="400.56" y="0" style="font-family:Eurostile-Reg, Eurostile;font-style:normal">po</tspan><tspan x="421.94" y="0" style="font-family:Eurostile-Reg, Eurostile;font-style:normal;letter-spacing:0.03895696926952046em">r</tspan><tspan x="430.98" y="0" style="font-family:Eurostile-Reg, Eurostile;font-style:normal;letter-spacing:0.000031066163691802596em">t solu</tspan><tspan x="478.19" y="0" style="font-family:Eurostile-Reg, Eurostile;font-style:normal;letter-spacing:0.015004957063140655em">t</tspan><tspan x="485.37" y="0" style="font-family:Eurostile-Reg, Eurostile;font-style:normal">ion</tspan><tspan x="510.74" y="0" style="font-family:Eurostile-Reg, Eurostile;font-style:normal;letter-spacing:-0.001988234476275366em">s</tspan><tspan x="520.65" y="0" style="font-family:Eurostile-Reg, Eurostile;font-style:normal">, </tspan><tspan x="530.15" y="0" style="font-family:Eurostile-Reg, Eurostile;font-style:normal;letter-spacing:-0.0009630510744458806em">c</tspan><tspan x="540.34" y="0" style="font-family:Eurostile-Reg, Eurostile;font-style:normal">hi</tspan><tspan x="555.11" y="0" style="font-family:Eurostile-Reg, Eurostile;font-style:normal;letter-spacing:0.005995769592517902em">c</tspan><tspan x="565.44" y="0" style="font-family:Eurostile-Reg, Eurostile;font-style:normal;letter-spacing:-0.002982351714413049em">a</tspan><tspan x="575.87" y="0" style="font-family:Eurostile-Reg, Eurostile;font-style:normal;letter-spacing:-0.001988234476275366em">g</tspan><tspan x="586.56" y="0" style="font-family:Eurostile-Reg, Eurostile;font-style:normal">o IL(may - a</tspan><tspan x="683.88" y="0" style="font-family:Eurostile-Reg, Eurostile;font-style:normal;letter-spacing:-0.002982351714413049em">u</tspan><tspan x="694.36" y="0" style="font-family:Eurostile-Reg, Eurostile;font-style:normal">gu</tspan><tspan x="715.63" y="0" style="font-family:Eurostile-Reg, Eurostile;font-style:normal;letter-spacing:0.01901249217938319em">s</tspan><tspan x="725.98" y="0" style="font-family:Eurostile-Reg, Eurostile;font-style:normal;letter-spacing:-0.00006213232738360519em">t 2019)</tspan><tspan style="font-family:Eurostile-Reg, Eurostile;font-style:normal"><tspan x="0" y="25.25" style="letter-spacing:0.015004957063140655em">t</tspan><tspan x="7.17" y="25.25" style="letter-spacing:0.01099742194689812em">r</tspan><tspan x="15.63" y="25.25">a</tspan><tspan x="26.13" y="25.25" style="letter-spacing:-0.000994117238137683em">ck</tspan><tspan x="45.34" y="25.25">ed up </tspan><tspan x="98.44" y="25.25" style="letter-spacing:0.019975543253829074em">t</tspan><tspan x="105.72" y="25.25">o 40 shipmen</tspan><tspan x="226.56" y="25.25" style="letter-spacing:0.025971312846346975em">t</tspan><tspan x="233.96" y="25.25" style="letter-spacing:0.000031066163691802596em">s per </tspan><tspan x="283.97" y="25.25" style="letter-spacing:-0.004970586190688416em">d</tspan><tspan x="294.59" y="25.25">ay </tspan><tspan x="318.54" y="25.25" style="letter-spacing:0.015004957063140655em">t</tspan><tspan x="325.71" y="25.25">h</tspan><tspan x="336.52" y="25.25" style="letter-spacing:0.017987308777553702em">r</tspan><tspan x="345.13" y="25.25">o</tspan><tspan x="355.77" y="25.25" style="letter-spacing:-0.003013417878104852em">u</tspan><tspan x="366.25" y="25.25" style="letter-spacing:-0.003976468952550732em">g</tspan><tspan x="376.89" y="25.25">h </tspan><tspan x="392.97" y="25.25" style="letter-spacing:0.006026835756209704em">c</tspan><tspan x="403.3" y="25.25">alli</tspan><tspan x="425.66" y="25.25" style="letter-spacing:-0.004007535116242535em">n</tspan><tspan x="436.35" y="25.25">g and emaili</tspan><tspan x="539.62" y="25.25" style="letter-spacing:-0.004007535116242535em">n</tspan><tspan x="550.31" y="25.25">g </tspan><tspan x="566.3" y="25.25" style="letter-spacing:0.004970586190688416em">o</tspan><tspan x="577.05" y="25.25" style="letter-spacing:0.004007535116242535em">v</tspan><tspan x="585.59" y="25.25" style="letter-spacing:-0.000031066163691802596em">er 30 </tspan><tspan x="640.71" y="25.25" style="letter-spacing:0.015036023226832456em">t</tspan><tspan x="647.88" y="25.25" style="letter-spacing:0.011960473021344em">r</tspan><tspan x="656.36" y="25.25">u</tspan><tspan x="666.9" y="25.25" style="letter-spacing:-0.0010251834018294857em">c</tspan><tspan x="677.08" y="25.25" style="letter-spacing:0.02199484389379624em">k</tspan><tspan x="686.59" y="25.25" style="letter-spacing:-0.00006213232738360519em">i</tspan><tspan x="690.55" y="25.25" style="letter-spacing:-0.003976468952550732em">n</tspan><tspan x="701.23" y="25.25" style="letter-spacing:0.00006213232738360519em">g </tspan><tspan x="717.22" y="25.25" style="letter-spacing:0.006026835756209704em">c</tspan><tspan x="727.55" y="25.25">a</tspan><tspan x="738.05" y="25.25" style="letter-spacing:0.011929406857652196em">rr</tspan><tspan x="755.01" y="25.25">ie</tspan><tspan x="769.54" y="25.25" style="letter-spacing:0.021000726655658556em">r</tspan><tspan x="778.21" y="25.25">s. </tspan><tspan x="0" y="50.49">i</tspan><tspan x="3.95" y="50.49" style="letter-spacing:-0.005001652354380218em">n</tspan><tspan x="14.62" y="50.49" style="letter-spacing:0.000031066163691802596em">put shipment </tspan><tspan x="134.01" y="50.49" style="letter-spacing:-0.002982351714413049em">s</tspan><tspan x="143.9" y="50.49">peci</tspan><tspan x="179.37" y="50.49" style="letter-spacing:0.01699319153941602em">f</tspan><tspan x="185.39" y="50.49">ic in</tspan><tspan x="219.53" y="50.49" style="letter-spacing:0.010966355783206318em">f</tspan><tspan x="225.42" y="50.49">o</tspan><tspan x="236.07" y="50.49" style="letter-spacing:0.011991539185035803em">r</tspan><tspan x="244.54" y="50.49" style="letter-spacing:-0.000031066163691802596em">m</tspan><tspan x="261.63" y="50.49" style="letter-spacing:0.01099742194689812em">a</tspan><tspan x="272.36" y="50.49" style="letter-spacing:0.015036023226832456em">t</tspan><tspan x="279.53" y="50.49">ion in</tspan><tspan x="324.89" y="50.49" style="letter-spacing:0.020006609417520874em">t</tspan><tspan x="332.17" y="50.49">o a </tspan><tspan x="363.83" y="50.49" style="letter-spacing:0.015004957063140655em">t</tspan><tspan x="371" y="50.49" style="letter-spacing:0.010966355783206318em">r</tspan><tspan x="379.46" y="50.49" style="letter-spacing:0.000031066163691802596em">an</tspan><tspan x="400.73" y="50.49" style="letter-spacing:-0.002982351714413049em">s</tspan><tspan x="410.62" y="50.49" style="letter-spacing:0.000031066163691802596em">po</tspan><tspan x="431.99" y="50.49" style="letter-spacing:0.03895696926952046em">r</tspan><tspan x="441.04" y="50.49" style="letter-spacing:0.000031066163691802596em">t man</tspan><tspan x="491.51" y="50.49" style="letter-spacing:-0.002982351714413049em">ag</tspan><tspan x="512.61" y="50.49">ement so</tspan><tspan x="594.34" y="50.49" style="letter-spacing:0.048991340141972706em">f</tspan><tspan x="601.03" y="50.49" style="letter-spacing:0.03398638307883204em">t</tspan><tspan x="608.61" y="50.49" style="letter-spacing:0.000994117238137683em">w</tspan><tspan x="622.72" y="50.49">a</tspan><tspan x="633.22" y="50.49" style="letter-spacing:0.017987308777553702em">r</tspan><tspan x="641.82" y="50.49">e </tspan><tspan x="657.67" y="50.49" style="letter-spacing:0.019975543253829074em">t</tspan><tspan x="664.94" y="50.49">o enable </tspan><tspan x="743.25" y="50.49" style="letter-spacing:0.008947055143239149em">s</tspan><tspan x="753.39" y="50.49" style="letter-spacing:0.012985656423173488em">w</tspan><tspan x="767.76" y="50.49">i</tspan><tspan x="771.71" y="50.49" style="letter-spacing:0.04902240630566451em">f</tspan><tspan x="778.4" y="50.49">t </tspan><tspan x="790.52" y="50.49" style="letter-spacing:0.014973890899448854em">t</tspan><tspan x="797.69" y="50.49" style="letter-spacing:0.01099742194689812em">r</tspan><tspan x="806.15" y="50.49">a</tspan><tspan x="816.65" y="50.49" style="letter-spacing:-0.000994117238137683em">c</tspan><tspan x="826.83" y="50.49" style="letter-spacing:0.021932711566412636em">k</tspan><tspan x="836.34" y="50.49">i</tspan><tspan x="840.29" y="50.49" style="letter-spacing:-0.003976468952550732em">n</tspan><tspan x="850.98" y="50.49">g a</tspan><tspan x="877.47" y="50.49" style="letter-spacing:0.04902240630566451em">f</tspan><tspan x="884.16" y="50.49" style="letter-spacing:0.019944477090137268em">t</tspan><tspan x="891.44" y="50.49" style="letter-spacing:0.00006213232738360519em">er hou</tspan><tspan x="947.5" y="50.49" style="letter-spacing:0.021000726655658556em">r</tspan><tspan x="956.17" y="50.49">s. </tspan><tspan x="0" y="75.74">used a </tspan><tspan x="62.82" y="75.74" style="letter-spacing:0.015004957063140655em">t</tspan><tspan x="69.99" y="75.74" style="letter-spacing:0.01099742194689812em">r</tspan><tspan x="78.45" y="75.74">an</tspan><tspan x="99.72" y="75.74" style="letter-spacing:-0.002982351714413049em">s</tspan><tspan x="109.61" y="75.74">po</tspan><tspan x="130.98" y="75.74" style="letter-spacing:0.03895696926952046em">r</tspan><tspan x="140.03" y="75.74" style="letter-spacing:0.000031066163691802596em">t man</tspan><tspan x="190.5" y="75.74" style="letter-spacing:-0.002982351714413049em">ag</tspan><tspan x="211.6" y="75.74">ement so</tspan><tspan x="293.33" y="75.74" style="letter-spacing:0.048991340141972706em">f</tspan><tspan x="300.02" y="75.74" style="letter-spacing:0.034017449242523846em">t</tspan><tspan x="307.6" y="75.74" style="letter-spacing:0.0009630510744458806em">w</tspan><tspan x="321.71" y="75.74" style="letter-spacing:0.000031066163691802596em">a</tspan><tspan x="332.21" y="75.74" style="letter-spacing:0.017956242613861903em">r</tspan><tspan x="340.81" y="75.74">e </tspan><tspan x="356.66" y="75.74" style="letter-spacing:0.019975543253829074em">t</tspan><tspan x="363.93" y="75.74">o up</tspan><tspan x="401.11" y="75.74" style="letter-spacing:-0.004970586190688416em">d</tspan><tspan x="411.73" y="75.74" style="letter-spacing:0.01099742194689812em">a</tspan><tspan x="422.46" y="75.74" style="letter-spacing:0.020006609417520874em">t</tspan><tspan x="429.74" y="75.74">e shipmen</tspan><tspan x="519.47" y="75.74" style="letter-spacing:0.026002379010038778em">t</tspan><tspan x="526.87" y="75.74" style="letter-spacing:0.000031066163691802596em">s </tspan><tspan x="542.08" y="75.74" style="letter-spacing:0.012985656423173488em">w</tspan><tspan x="556.45" y="75.74">i</tspan><tspan x="560.41" y="75.74" style="letter-spacing:0.015004957063140655em">t</tspan><tspan x="567.58" y="75.74">h lo</tspan><tspan x="598.25" y="75.74" style="letter-spacing:0.006026835756209704em">c</tspan><tspan x="608.58" y="75.74" style="letter-spacing:0.010966355783206318em">a</tspan><tspan x="619.31" y="75.74" style="letter-spacing:0.015036023226832456em">t</tspan><tspan x="626.49" y="75.74">ions </tspan><tspan x="667.07" y="75.74" style="letter-spacing:0.017987308777553702em">r</tspan><tspan x="675.67" y="75.74">e</tspan><tspan x="686.25" y="75.74" style="letter-spacing:0.002982351714413049em">c</tspan><tspan x="696.52" y="75.74" style="letter-spacing:0.00006213232738360519em">e</tspan><tspan x="707.1" y="75.74" style="letter-spacing:0.015968008137586535em">i</tspan><tspan x="711.4" y="75.74" style="letter-spacing:0.003976468952550732em">v</tspan><tspan x="719.94" y="75.74">ed f</tspan><tspan x="752.17" y="75.74" style="letter-spacing:0.017956242613861903em">r</tspan><tspan x="760.77" y="75.74">om </tspan><tspan x="793.76" y="75.74" style="letter-spacing:0.015036023226832456em">t</tspan><tspan x="800.93" y="75.74" style="letter-spacing:0.011929406857652196em">r</tspan><tspan x="809.41" y="75.74" style="letter-spacing:0.00006213232738360519em">u</tspan><tspan x="819.95" y="75.74" style="letter-spacing:-0.0010562495655212884em">c</tspan><tspan x="830.13" y="75.74" style="letter-spacing:0.02199484389379624em">k</tspan><tspan x="839.64" y="75.74" style="letter-spacing:-0.00006213232738360519em">i</tspan><tspan x="843.6" y="75.74" style="letter-spacing:-0.003976468952550732em">n</tspan><tspan x="854.28" y="75.74" style="letter-spacing:0.00006213232738360519em">g </tspan><tspan x="870.27" y="75.74" style="letter-spacing:0.006026835756209704em">c</tspan><tspan x="880.6" y="75.74">a</tspan><tspan x="891.1" y="75.74" style="letter-spacing:0.011991539185035803em">rr</tspan><tspan x="908.06" y="75.74" style="letter-spacing:-0.00006213232738360519em">ie</tspan><tspan x="922.59" y="75.74" style="letter-spacing:0.020938594328274954em">r</tspan><tspan x="931.26" y="75.74">s. </tspan><tspan x="0" y="100.98" style="letter-spacing:0.003013417878104852em">c</tspan><tspan x="10.27" y="100.98" style="letter-spacing:-0.000031066163691802596em">oo</tspan><tspan x="31.56" y="100.98" style="letter-spacing:0.017987308777553702em">r</tspan><tspan x="40.16" y="100.98">din</tspan><tspan x="65.62" y="100.98" style="letter-spacing:0.01099742194689812em">a</tspan><tspan x="76.35" y="100.98" style="letter-spacing:0.020006609417520874em">t</tspan><tspan x="83.62" y="100.98">ed in</tspan><tspan x="124.92" y="100.98" style="letter-spacing:0.01099742194689812em">f</tspan><tspan x="130.81" y="100.98">o</tspan><tspan x="141.46" y="100.98" style="letter-spacing:0.011960473021344em">r</tspan><tspan x="149.94" y="100.98">m</tspan><tspan x="167.02" y="100.98" style="letter-spacing:0.01099742194689812em">a</tspan><tspan x="177.75" y="100.98" style="letter-spacing:0.015004957063140655em">t</tspan><tspan x="184.92" y="100.98">ion about shipmen</tspan><tspan x="343.99" y="100.98" style="letter-spacing:0.026002379010038778em">t</tspan><tspan x="351.39" y="100.98">s </tspan><tspan x="366.6" y="100.98" style="letter-spacing:0.020006609417520874em">t</tspan><tspan x="373.88" y="100.98">o </tspan><tspan x="389.79" y="100.98" style="letter-spacing:0.015004957063140655em">t</tspan><tspan x="396.96" y="100.98">h</tspan><tspan x="407.78" y="100.98" style="letter-spacing:0.017987308777553702em">r</tspan><tspan x="416.38" y="100.98">ee di</tspan><tspan x="457.49" y="100.98" style="letter-spacing:0.042995570549454805em">f</tspan><tspan x="464.05" y="100.98" style="letter-spacing:0.008978121306930952em">f</tspan><tspan x="469.9" y="100.98">e</tspan><tspan x="480.48" y="100.98" style="letter-spacing:0.017987308777553702em">r</tspan><tspan x="489.09" y="100.98">ent depa</tspan><tspan x="565.1" y="100.98" style="letter-spacing:0.03898803543321226em">r</tspan><tspan x="574.14" y="100.98" style="letter-spacing:0.015004957063140655em">t</tspan><tspan x="581.32" y="100.98">men</tspan><tspan x="619.75" y="100.98" style="letter-spacing:0.026002379010038778em">t</tspan><tspan x="627.16" y="100.98">s </tspan><tspan x="642.37" y="100.98" style="letter-spacing:0.012985656423173488em">w</tspan><tspan x="656.74" y="100.98">i</tspan><tspan x="660.69" y="100.98" style="letter-spacing:0.015004957063140655em">t</tspan><tspan x="667.87" y="100.98" style="letter-spacing:0.000031066163691802596em">hin </tspan><tspan x="698.67" y="100.98" style="letter-spacing:0.014973890899448854em">t</tspan><tspan x="705.84" y="100.98">he </tspan><tspan x="732.49" y="100.98" style="letter-spacing:0.002982351714413049em">c</tspan><tspan x="742.76" y="100.98">o</tspan><tspan x="753.41" y="100.98" style="letter-spacing:-0.0050327185180720204em">m</tspan><tspan x="770.38" y="100.98">pa</tspan><tspan x="791.61" y="100.98" style="letter-spacing:0.0020503668036589715em">n</tspan><tspan x="802.42" y="100.98" style="letter-spacing:-0.027027562411868263em">y</tspan><tspan x="810.04" y="100.98">.</tspan></tspan></text><rect x="649.52" y="25.16" width="246.66" height="104" rx="24.5" style="fill:#fff;stroke:#000;stroke-miterlimit:10"/><text transform="translate(673.75 82.56)" style="font-size:22.365516662597656px;font-family:Eurostile-Reg, Eurostile"><tspan style="letter-spacing:0.013011799789390594em">w</tspan><tspan x="15.28" y="0">ill</tspan><tspan x="27.89" y="0" style="letter-spacing:0.007990467655900935em">p</tspan><tspan x="39.47" y="0" style="letter-spacing:0.023971402967702806em">t</tspan><tspan x="47.3" y="0">a</tspan><tspan x="58.46" y="0" style="letter-spacing:0.0030127992800937954em">c</tspan><tspan x="69.38" y="0" style="letter-spacing:-0.004017065706791727em">e</tspan><tspan x="80.54" y="0">k@gmai</tspan><tspan x="149.15" y="0" style="letter-spacing:-0.00497766837580714em">l</tspan><tspan x="153.25" y="0">.</tspan><tspan x="157.7" y="0" style="letter-spacing:0.0030127992800937954em">c</tspan><tspan x="168.61" y="0">om</tspan></text></svg>