<svg id="Layer_2" data-name="Layer 2" xmlns="http://www.w3.org/2000/svg" viewBox="0 0 923 252"><defs><style>.cls-1{fill:#fff;stroke:#000;stroke-miterlimit:10;}</style></defs><path class="cls-1" d="M1005,38H129a23,23,0,0,0-23,23V266a23,23,0,0,0,23,23H881.12a23,23,0,0,0,15.46-6L937.42,246a23,23,0,0,1,15.46-6H1005a23,23,0,0,0,23-23V61A23,23,0,0,0,1005,38Z" transform="translate(-105.5 -37.5)"/><text x="-105.5" y="-37.5"/><rect class="cls-1" x="649.52" y="25.16" width="246.66" height="104" rx="24.5"/></svg>