<svg id="Layer_1" data-name="Layer 1" xmlns="http://www.w3.org/2000/svg" viewBox="0 0 454.08 98.69"><defs><style>.cls-1{fill:#fff;stroke:#000;stroke-miterlimit:10;}</style></defs><path class="cls-1" d="M286.31,131.54H632.46a15.39,15.39,0,0,1,15.39,15.38v40a15.39,15.39,0,0,1-15.39,15.39H335.86a119.68,119.68,0,0,0-39.5,6.71l-52.49,18.37a32.71,32.71,0,0,1-10.82,1.84h-22.9a15.39,15.39,0,0,1-15.38-15.38V146.92a15.39,15.39,0,0,1,15.38-15.38Z" transform="translate(-194.27 -131.04)"/><path class="cls-1" d="M201.9,203" transform="translate(-194.27 -131.04)"/><path class="cls-1" d="M254.12,229.23" transform="translate(-194.27 -131.04)"/></svg>